<?xml version="1.0" encoding="UTF-8"?>
<svg id="Layer_2" xmlns="http://www.w3.org/2000/svg" viewBox="0 0 120 120">
  <defs>
    <style>
      .cls-1 {
        fill: #fff;
      }

      .cls-2 {
        fill: #1e91cf;
      }
    </style>
  </defs>
  <g id="_x31_1">
    <path class="cls-2" d="M32.81,0h54.38c18.11,0,32.81,14.7,32.81,32.81v54.38c0,18.11-14.7,32.81-32.81,32.81h-54.38C14.7,120,0,105.3,0,87.19v-54.38C0,14.7,14.7,0,32.81,0Z"/>
    <path class="cls-1" d="M92.26,28.37c-10.19,4.22-53.9,22.32-65.97,27.26-8.1,3.16-3.35,6.12-3.35,6.12,0,0,6.91,2.37,12.84,4.15,5.93,1.78,9.09-.2,9.09-.2l27.85-18.76c9.88-6.72,7.51-1.18,5.14,1.19-5.14,5.13-13.63,13.23-20.74,19.75-3.16,2.77-1.58,5.14-.2,6.32,5.14,4.35,19.16,13.23,19.95,13.83,4.17,2.96,12.38,7.21,13.63-1.78l4.94-31.01c1.58-10.47,3.16-20.15,3.36-22.91.59-6.72-6.52-3.95-6.52-3.95Z"/>
  </g>
</svg>