<?xml version="1.0" encoding="UTF-8"?>
<svg id="Layer_2" xmlns="http://www.w3.org/2000/svg" viewBox="0 0 32 32">
  <g id="Layer_1-2" data-name="Layer_1">
    <g id="doYQoW">
      <g>
        <path d="M27.06,32H3.06c-.06-.02-.11-.05-.17-.06-1.08-.19-1.88-.76-2.44-1.7-.23-.39-.32-.82-.45-1.25,0-5.96,0-11.92,0-17.88,0,0,.01-.02.02-.03.34-1.67,1.34-2.68,3.04-2.96.16-.03.15-.09.1-.21-.11-.28-.21-.57-.31-.85-.5-1.36.05-2.53,1.41-3.02C7.98,2.71,11.71,1.35,15.44,0c.21,0,.42,0,.62,0,1.07.23,1.66.94,1.95,1.96.13.47.34.92.49,1.38.07.21.17.28.4.28,1.86-.01,3.73,0,5.59,0,1.41,0,2.33.92,2.33,2.32,0,.66,0,1.31,0,1.97,0,.15.04.21.2.23,1.9.26,3.11,1.64,3.11,3.55,0,1.11,0,2.23,0,3.34,0,.21.04.3.27.36.58.14,1.02.5,1.32,1.02.13.23.18.48.29.72v5.75c-.09.06-.07.17-.1.26-.25.74-.74,1.25-1.5,1.45-.25.07-.29.18-.29.4,0,1.23.02,2.45,0,3.68-.03,1.47-1.05,2.77-2.46,3.18-.2.06-.4.1-.6.15ZM15.07,10c-3.84,0-7.69,0-11.53,0-1.01,0-1.66.65-1.66,1.66,0,5.59,0,11.19,0,16.78,0,1.03.65,1.68,1.68,1.68,7.68,0,15.35,0,23.03,0,1,0,1.66-.66,1.67-1.66,0-1.16,0-2.31,0-3.47,0-.24-.06-.31-.31-.31-1.07.01-2.15.02-3.22,0-2.53-.04-4.59-2.13-4.61-4.65-.01-2.6,2.05-4.69,4.66-4.72,1.02,0,2.04-.01,3.06,0,.31,0,.42-.06.41-.4-.03-1.05,0-2.1,0-3.16,0-1.16-.61-1.77-1.78-1.77-3.8,0-7.6,0-11.41,0ZM9.59,8.12c1.36,0,2.73,0,4.09,0,.27,0,.33-.08.32-.33-.02-.67-.01-1.33,0-2,0-.64.25-1.18.72-1.61.46-.42,1.01-.6,1.63-.57.21.01.25-.05.17-.24-.15-.39-.28-.78-.42-1.17-.12-.33-.24-.38-.57-.26-3.56,1.29-7.11,2.59-10.67,3.88-.34.12-.39.24-.26.6.17.48.36.95.52,1.44.07.21.17.26.38.26,1.36,0,2.73,0,4.09,0ZM27.19,17.18c-.75,0-1.5,0-2.25,0-.19,0-.38,0-.56.03-1.48.26-2.49,1.55-2.37,3.01.12,1.46,1.33,2.57,2.84,2.58,1.6,0,3.21,0,4.81,0,.37,0,.47-.09.47-.46,0-1.57,0-3.14,0-4.72,0-.37-.09-.45-.47-.45-.82,0-1.65,0-2.47,0ZM20.42,8.12c1.42,0,2.83,0,4.25,0,.22,0,.28-.05.28-.28-.01-.63,0-1.27,0-1.9,0-.36-.09-.45-.44-.45-2.73,0-5.45,0-8.18,0-.35,0-.44.09-.44.44,0,.61.01,1.23,0,1.84,0,.26.05.35.34.35,1.4-.02,2.81,0,4.21,0Z"/>
        <path d="M25.75,20.01c0,.5-.44.93-.94.92-.52,0-.95-.45-.93-.97.02-.51.45-.91.96-.9.51.01.92.44.91.95Z"/>
      </g>
    </g>
  </g>
</svg>