<?xml version="1.0" encoding="UTF-8"?>
<svg id="Layer_2" xmlns="http://www.w3.org/2000/svg" viewBox="0 0 120 120">
  <defs>
    <style>
      .cls-1 {
        fill: #fff;
      }
    </style>
  </defs>
  <g id="_x31_1">
    <path d="M32.81,0h54.38c18.11,0,32.81,14.7,32.81,32.81v54.38c0,18.11-14.7,32.81-32.81,32.81h-54.38C14.7,120,0,105.3,0,87.19v-54.38C0,14.7,14.7,0,32.81,0Z"/>
    <path class="cls-1" d="M77.89,88.54h6.5L42.42,31.08h-6.98l42.45,57.46ZM82.01,24.19h11.74l-25.64,30.34,30.16,41.29h-23.62l-18.5-25.04-21.16,25.04h-11.74l27.42-32.45L21.73,24.19h24.22l16.72,22.89,19.34-22.89Z"/>
  </g>
</svg>